<svg xmlns="http://www.w3.org/2000/svg" viewBox="0 0 64 64">
  <defs>
    <linearGradient id="favGradient" x1="12" y1="10" x2="52" y2="54" gradientUnits="userSpaceOnUse">
      <stop offset="0%" stop-color="#5CFFF1" />
      <stop offset="60%" stop-color="#5A6CFF" />
      <stop offset="100%" stop-color="#2D3DFF" />
    </linearGradient>
  </defs>
  <rect x="6" y="6" width="52" height="52" rx="16" fill="#0F162F" />
  <path d="M22 18C22 16.343 23.343 15 25 15H44C45.657 15 47 16.343 47 18C47 19.657 45.657 21 44 21H29V29H40.5C42.157 29 43.5 30.343 43.5 32C43.5 33.657 42.157 35 40.5 35H29V43H44C45.657 43 47 44.343 47 46C47 47.657 45.657 49 44 49H25C23.343 49 22 47.657 22 46V18Z" fill="url(#favGradient)" />
</svg>
