<svg xmlns="http://www.w3.org/2000/svg" viewBox="0 0 200 200" width="200" height="200">
  <!-- Background Circle -->
  <circle cx="100" cy="100" r="95" fill="url(#grad1)" stroke="#667eea" stroke-width="3"/>
  
  <!-- Gradient Definition -->
  <defs>
    <linearGradient id="grad1" x1="0%" y1="0%" x2="100%" y2="100%">
      <stop offset="0%" style="stop-color:#667eea;stop-opacity:1" />
      <stop offset="100%" style="stop-color:#764ba2;stop-opacity:1" />
    </linearGradient>
    <linearGradient id="grad2" x1="0%" y1="0%" x2="100%" y2="100%">
      <stop offset="0%" style="stop-color:#ffffff;stop-opacity:1" />
      <stop offset="100%" style="stop-color:#f0f0f0;stop-opacity:1" />
    </linearGradient>
  </defs>
  
  <!-- Stylized "E" for Earn -->
  <g transform="translate(100, 100)">
    <!-- Main E shape -->
    <path d="M -35 -40 L 20 -40 L 20 -25 L -20 -25 L -20 -5 L 15 -5 L 15 10 L -20 10 L -20 30 L 20 30 L 20 45 L -35 45 Z" 
          fill="url(#grad2)" 
          stroke="#667eea" 
          stroke-width="2"/>
    
    <!-- Tech circuit lines -->
    <line x1="25" y1="-30" x2="40" y2="-30" stroke="#ffffff" stroke-width="2"/>
    <circle cx="42" cy="-30" r="3" fill="#ffffff"/>
    
    <line x1="25" y1="0" x2="40" y2="0" stroke="#ffffff" stroke-width="2"/>
    <circle cx="42" cy="0" r="3" fill="#ffffff"/>
    
    <line x1="25" y1="35" x2="40" y2="35" stroke="#ffffff" stroke-width="2"/>
    <circle cx="42" cy="35" r="3" fill="#ffffff"/>
    
    <!-- AI Brain Neural Network Pattern -->
    <g opacity="0.6">
      <circle cx="-45" cy="-35" r="4" fill="#ffffff"/>
      <circle cx="-45" cy="0" r="4" fill="#ffffff"/>
      <circle cx="-45" cy="35" r="4" fill="#ffffff"/>
      
      <line x1="-45" y1="-35" x2="-45" y2="0" stroke="#ffffff" stroke-width="1.5"/>
      <line x1="-45" y1="0" x2="-45" y2="35" stroke="#ffffff" stroke-width="1.5"/>
      <line x1="-45" y1="-35" x2="-35" y2="-25" stroke="#ffffff" stroke-width="1.5"/>
      <line x1="-45" y1="0" x2="-35" y2="0" stroke="#ffffff" stroke-width="1.5"/>
      <line x1="-45" y1="35" x2="-35" y2="25" stroke="#ffffff" stroke-width="1.5"/>
    </g>
    
    <!-- Rising arrow (growth/earning concept) -->
    <g transform="translate(30, -50)">
      <path d="M 0 20 L 0 -5 L -8 3 M 0 -5 L 8 3" 
            stroke="#ffffff" 
            stroke-width="3" 
            fill="none" 
            stroke-linecap="round" 
            stroke-linejoin="round"/>
    </g>
  </g>
  
  <!-- Outer decorative ring -->
  <circle cx="100" cy="100" r="95" fill="none" stroke="url(#grad1)" stroke-width="2" opacity="0.5"/>
</svg>