<svg width="64" height="64" viewBox="0 0 64 64" fill="none" xmlns="http://www.w3.org/2000/svg" role="img" aria-labelledby="earnLogoTitle earnLogoDesc">
  <title id="earnLogoTitle">Earn Technologies Logo</title>
  <desc id="earnLogoDesc">Abstract monogram with layered letter E and gradient orb</desc>
  <defs>
    <linearGradient id="earnGradient" x1="8" y1="10" x2="54" y2="54" gradientUnits="userSpaceOnUse">
      <stop offset="0%" stop-color="#53FFE2" />
      <stop offset="46%" stop-color="#5C7CFF" />
      <stop offset="100%" stop-color="#2F4CFF" />
    </linearGradient>
    <linearGradient id="earnGlow" x1="20" y1="12" x2="52" y2="44" gradientUnits="userSpaceOnUse">
      <stop offset="0%" stop-color="#64FFF0" stop-opacity="0.8" />
      <stop offset="100%" stop-color="#3754FF" stop-opacity="0.1" />
    </linearGradient>
  </defs>
  <rect x="4" y="4" width="56" height="56" rx="18" fill="rgba(15, 21, 40, 0.88)" />
  <circle cx="44" cy="20" r="12" fill="url(#earnGlow)" />
  <path d="M19 19C19 15.6863 21.6863 13 25 13H44C45.6569 13 47 14.3431 47 16C47 17.6569 45.6569 19 44 19H27V29H40.5C42.1569 29 43.5 30.3431 43.5 32C43.5 33.6569 42.1569 35 40.5 35H27V45H44C45.6569 45 47 46.3431 47 48C47 49.6569 45.6569 51 44 51H25C21.6863 51 19 48.3137 19 45V19Z" fill="url(#earnGradient)" />
  <path d="M23 19C23 17.3431 24.3431 16 26 16H42" stroke="rgba(255,255,255,0.18)" stroke-width="2" stroke-linecap="round" />
  <path d="M26 32H40" stroke="rgba(255,255,255,0.14)" stroke-width="2" stroke-linecap="round" />
  <path d="M23 45C23 43.3431 24.3431 42 26 42H42" stroke="rgba(255,255,255,0.2)" stroke-width="2" stroke-linecap="round" />
</svg>
