<svg width="80" height="80" viewBox="0 0 80 80" fill="none" xmlns="http://www.w3.org/2000/svg" role="img" aria-labelledby="earnLogoTitle earnLogoDesc">
  <title id="earnLogoTitle">Earn Technologies Logo</title>
  <desc id="earnLogoDesc">Modern professional logo representing AI/ML transformation with bold geometric design</desc>
  <defs>
    <linearGradient id="earnPrimary" x1="0" y1="0" x2="80" y2="80" gradientUnits="userSpaceOnUse">
      <stop offset="0%" stop-color="#0066FF" />
      <stop offset="50%" stop-color="#00A8FF" />
      <stop offset="100%" stop-color="#00D4AA" />
    </linearGradient>
    <linearGradient id="earnAccent" x1="0" y1="0" x2="80" y2="80" gradientUnits="userSpaceOnUse">
      <stop offset="0%" stop-color="#FF5A5F" />
      <stop offset="100%" stop-color="#FF8C42" />
    </linearGradient>
    <filter id="shadow">
      <feDropShadow dx="0" dy="2" stdDeviation="3" flood-opacity="0.3"/>
    </filter>
  </defs>
  
  <!-- Background Circle for visibility -->
  <circle cx="40" cy="40" r="38" fill="white" opacity="0.95"/>
  <circle cx="40" cy="40" r="38" fill="url(#earnPrimary)" opacity="0.1"/>
  
  <!-- Main Logo Symbol: Modern "E" integrated with AI network -->
  <g transform="translate(40, 40)">
    <!-- Letter E - Bold and clear -->
    <path d="M -20 -18 L -20 18 L 12 18 L 12 10 L -12 10 L -12 0 L 8 0 L 8 -8 L -12 -8 L -12 -18 Z" 
          fill="url(#earnPrimary)" filter="url(#shadow)"/>
    
    <!-- AI Network Nodes - Connected to E -->
    <circle cx="16" cy="-10" r="6" fill="url(#earnAccent)"/>
    <circle cx="20" cy="0" r="6" fill="url(#earnAccent)"/>
    <circle cx="16" cy="10" r="6" fill="url(#earnAccent)"/>
    
    <!-- Connection Lines -->
    <line x1="12" y1="-8" x2="16" y2="-10" stroke="url(#earnPrimary)" stroke-width="2" stroke-linecap="round"/>
    <line x1="12" y1="0" x2="20" y2="0" stroke="url(#earnPrimary)" stroke-width="2" stroke-linecap="round"/>
    <line x1="12" y1="8" x2="16" y2="10" stroke="url(#earnPrimary)" stroke-width="2" stroke-linecap="round"/>
    
    <!-- Network Connections -->
    <line x1="16" y1="-10" x2="20" y2="0" stroke="url(#earnPrimary)" stroke-width="1.5" opacity="0.6"/>
    <line x1="20" y1="0" x2="16" y2="10" stroke="url(#earnPrimary)" stroke-width="1.5" opacity="0.6"/>
  </g>
  
  <!-- Outer accent ring -->
  <circle cx="40" cy="40" r="36" stroke="url(#earnPrimary)" stroke-width="2" opacity="0.3" fill="none"/>
</svg>
