<svg width="80" height="80" viewBox="0 0 80 80" fill="none" xmlns="http://www.w3.org/2000/svg" role="img" aria-labelledby="earnLogoTitle earnLogoDesc">
  <title id="earnLogoTitle">Earn Technologies Logo</title>
  <desc id="earnLogoDesc">Professional logo combining letter E with AI neural network</desc>
  <defs>
    <linearGradient id="logoPrimary" x1="0" y1="0" x2="80" y2="80" gradientUnits="userSpaceOnUse">
      <stop offset="0%" stop-color="#0066FF" />
      <stop offset="50%" stop-color="#00A8FF" />
      <stop offset="100%" stop-color="#00D4AA" />
    </linearGradient>
    <linearGradient id="logoAccent" x1="40" y1="0" x2="40" y2="80" gradientUnits="userSpaceOnUse">
      <stop offset="0%" stop-color="#FF5A5F" />
      <stop offset="100%" stop-color="#FF8C42" />
    </linearGradient>
    <filter id="logoShadow">
      <feDropShadow dx="0" dy="2" stdDeviation="4" flood-color="#0066FF" flood-opacity="0.3"/>
    </filter>
  </defs>
  
  <!-- White background for visibility -->
  <rect x="2" y="2" width="76" height="76" rx="18" fill="white"/>
  <rect x="2" y="2" width="76" height="76" rx="18" fill="url(#logoPrimary)" opacity="0.08"/>
  
  <!-- Main Letter E - Bold and Modern -->
  <path d="M 18 22 L 18 58 L 50 58 L 50 50 L 26 50 L 26 44 L 48 44 L 48 36 L 26 36 L 26 30 L 50 30 L 50 22 Z" 
        fill="url(#logoPrimary)" filter="url(#logoShadow)"/>
  
  <!-- AI Network Nodes -->
  <circle cx="58" cy="28" r="7" fill="url(#logoAccent)"/>
  <circle cx="62" cy="40" r="8" fill="url(#logoPrimary)"/>
  <circle cx="58" cy="52" r="6" fill="url(#logoAccent)"/>
  
  <!-- Connection Lines -->
  <line x1="50" y1="30" x2="58" y2="28" stroke="url(#logoPrimary)" stroke-width="2.5" stroke-linecap="round"/>
  <line x1="50" y1="40" x2="62" y2="40" stroke="url(#logoPrimary)" stroke-width="2.5" stroke-linecap="round"/>
  <line x1="50" y1="50" x2="58" y2="52" stroke="url(#logoPrimary)" stroke-width="2.5" stroke-linecap="round"/>
  
  <!-- Network connections between nodes -->
  <line x1="58" y1="28" x2="62" y2="40" stroke="url(#logoPrimary)" stroke-width="2" opacity="0.6" stroke-linecap="round"/>
  <line x1="62" y1="40" x2="58" y2="52" stroke="url(#logoPrimary)" stroke-width="2" opacity="0.6" stroke-linecap="round"/>
  
  <!-- Border -->
  <rect x="2" y="2" width="76" height="76" rx="18" stroke="url(#logoPrimary)" stroke-width="1.5" opacity="0.2" fill="none"/>
</svg>
